<?xml version="1.0" encoding="UTF-8"?>
<svg xmlns="http://www.w3.org/2000/svg" xmlns:xlink="http://www.w3.org/1999/xlink" width="100px" height="100px" viewBox="0 0 100 100" version="1.1">
<g id="surface1">
<path style=" stroke:none;fill-rule:nonzero;fill:rgb(0%,0%,0%);fill-opacity:1;" d="M 46.632812 7.566406 C 44.152344 7.742188 43.710938 7.8125 40.734375 8.457031 C 37.335938 9.179688 34.230469 10.203125 31.582031 11.472656 C 23.59375 15.292969 17.636719 20.710938 13.019531 28.367188 C 10.96875 31.777344 9.171875 36.238281 8.222656 40.332031 C 7.753906 42.3125 7.285156 45.59375 7.121094 48.027344 C 6.847656 51.84375 7.375 56.980469 8.449219 61.035156 C 9.933594 66.621094 12.433594 71.679688 15.976562 76.277344 C 17.589844 78.378906 18 78.847656 19.621094 80.46875 C 24.796875 85.644531 31.09375 89.304688 38.332031 91.355469 C 40.578125 91.992188 43.652344 92.566406 45.949219 92.792969 C 47.65625 92.949219 51.046875 92.996094 52.394531 92.878906 C 53.097656 92.8125 54.171875 92.714844 54.785156 92.664062 C 55.96875 92.558594 59.503906 91.921875 60.742188 91.589844 C 67.773438 89.714844 72.648438 87.214844 77.8125 82.832031 C 85.890625 75.984375 91.222656 66.035156 92.472656 55.515625 C 92.851562 52.304688 92.910156 50.917969 92.785156 48.523438 C 92.257812 38.621094 88.925781 30 82.726562 22.46875 C 81.574219 21.074219 78.898438 18.367188 77.589844 17.273438 C 73.59375 13.925781 68.710938 11.191406 63.917969 9.609375 C 58.515625 7.832031 52.695312 7.136719 46.632812 7.566406 Z M 54.589844 9.519531 C 62.648438 10.507812 69.855469 13.425781 75.625 18.054688 C 80.988281 22.34375 85.050781 27.78125 87.84375 34.402344 C 90.050781 39.648438 91.386719 47.585938 90.929688 52.742188 C 90.148438 61.492188 87.519531 68.515625 82.570312 75.085938 C 77.492188 81.824219 71.015625 86.453125 62.929688 89.109375 C 60.15625 90.027344 58.214844 90.4375 54.921875 90.820312 C 52.882812 91.054688 48.691406 91.25 47.707031 91.160156 C 41.445312 90.605469 36.632812 89.335938 31.691406 86.914062 C 25.558594 83.925781 20.507812 79.539062 16.230469 73.515625 C 11.855469 67.351562 9.308594 59.65625 8.839844 51.269531 C 8.683594 48.4375 9.308594 43.554688 10.363281 39.472656 C 11.378906 35.496094 13.507812 30.859375 16.074219 27 C 19.824219 21.375 25.207031 16.648438 31.40625 13.542969 C 35.792969 11.347656 41.4375 9.804688 46.777344 9.335938 C 47.890625 9.238281 53.332031 9.363281 54.589844 9.519531 Z M 54.589844 9.519531 "/>
<path style=" stroke:none;fill-rule:nonzero;fill:rgb(0%,0%,0%);fill-opacity:1;" d="M 47.070312 10.554688 C 39.582031 11.101562 32.792969 13.515625 26.5625 17.851562 C 24.933594 18.984375 21.972656 21.464844 21.972656 21.6875 C 21.972656 21.824219 22.578125 22.167969 22.8125 22.167969 C 22.929688 22.167969 23.449219 21.816406 23.984375 21.375 C 29.140625 17.128906 34.640625 14.277344 40.332031 12.890625 C 43.507812 12.128906 45.929688 11.863281 49.757812 11.875 C 53.664062 11.882812 56.75 12.1875 59.132812 12.792969 C 59.726562 12.949219 60.988281 13.269531 61.933594 13.515625 C 63.046875 13.796875 64.074219 14.003906 64.816406 14.070312 C 65.449219 14.128906 66.289062 14.238281 66.679688 14.296875 C 67.070312 14.363281 67.414062 14.394531 67.433594 14.355469 C 67.511719 14.238281 64.738281 13.09375 62.910156 12.5 C 60.128906 11.589844 57.34375 11.003906 54.277344 10.691406 C 52.511719 10.507812 48.664062 10.4375 47.070312 10.554688 Z M 47.070312 10.554688 "/>
<path style=" stroke:none;fill-rule:nonzero;fill:rgb(0%,0%,0%);fill-opacity:1;" d="M 61.796875 15.039062 C 60.625 15.125 60.605469 15.136719 58.9375 15.742188 C 57.03125 16.425781 56.09375 16.921875 54.765625 17.9375 C 54.269531 18.320312 54.21875 18.386719 54.316406 18.554688 C 54.425781 18.71875 54.328125 18.847656 53.554688 19.648438 C 52.609375 20.632812 52.109375 21.367188 51.660156 22.46875 C 51.152344 23.691406 51.035156 24.265625 51.046875 25.488281 C 51.046875 26.433594 51.085938 26.738281 51.300781 27.390625 C 51.972656 29.414062 53.222656 30.859375 54.765625 31.40625 C 55.195312 31.5625 55.304688 31.570312 55.480469 31.464844 C 55.617188 31.375 55.820312 31.355469 56.132812 31.40625 C 56.5625 31.484375 56.835938 31.472656 56.925781 31.386719 C 56.945312 31.367188 56.710938 31.082031 56.40625 30.761719 C 55.929688 30.234375 55.703125 29.785156 55.9375 29.785156 C 55.976562 29.785156 56.308594 29.980469 56.671875 30.214844 C 57.414062 30.703125 57.84375 30.839844 58.058594 30.664062 C 58.261719 30.496094 58.242188 30.429688 57.910156 29.960938 C 57.589844 29.519531 57.519531 28.972656 57.753906 28.660156 C 57.882812 28.484375 57.902344 28.496094 58.117188 28.835938 C 58.332031 29.160156 58.566406 29.355469 58.652344 29.265625 C 58.671875 29.246094 58.730469 28.925781 58.789062 28.542969 C 58.90625 27.695312 59.21875 26.835938 59.53125 26.484375 L 59.765625 26.21875 L 59.699219 26.804688 L 59.640625 27.390625 L 60.558594 26.453125 C 61.515625 25.476562 62.070312 25.125 62.804688 25.027344 C 63.097656 24.988281 63.183594 25 63.164062 25.105469 C 63.144531 25.203125 63.332031 25.242188 64.003906 25.261719 C 65.519531 25.300781 66.621094 25.761719 67.785156 26.835938 C 68.566406 27.566406 69.414062 28.789062 69.796875 29.746094 C 70.039062 30.371094 70.058594 30.527344 70.058594 31.785156 C 70.058594 33.054688 70.039062 33.210938 69.785156 33.886719 C 69.445312 34.765625 69.316406 34.980469 68.808594 35.527344 C 67.785156 36.621094 66.769531 36.738281 64.210938 36.0625 C 61.066406 35.222656 58.359375 34.902344 55.285156 34.988281 C 51.992188 35.085938 48.769531 35.527344 44.738281 36.445312 C 42.8125 36.882812 42.382812 36.941406 41.40625 36.953125 C 40.363281 36.960938 40.246094 36.941406 39.71875 36.679688 C 38.917969 36.289062 38.671875 35.90625 38.097656 34.121094 C 37.160156 31.230469 36.40625 29.746094 35.128906 28.230469 C 34.015625 26.914062 32.824219 26.132812 30.9375 25.457031 C 29.855469 25.066406 29.433594 24.804688 27.628906 23.359375 C 25.078125 21.328125 24.453125 21.484375 24.992188 24.042969 C 25.089844 24.511719 25.136719 24.941406 25.097656 25 C 25 25.15625 24.84375 25.066406 23.535156 24.167969 C 22.1875 23.242188 21.710938 22.996094 21.523438 23.152344 C 21.289062 23.347656 21.367188 23.671875 21.972656 24.910156 C 22.296875 25.574219 22.558594 26.238281 22.558594 26.386719 C 22.558594 26.679688 22.558594 26.679688 21.710938 27.292969 C 21.085938 27.742188 20.449219 28.464844 20.089844 29.140625 C 19.894531 29.5 19.875 29.695312 19.875 31.003906 C 19.863281 32.636719 19.796875 32.910156 19.210938 33.554688 C 18.761719 34.0625 18.632812 34.335938 18.710938 34.597656 C 18.847656 35.046875 19.875 36.777344 20.253906 37.1875 C 20.988281 37.976562 21.105469 38.027344 22.414062 38.085938 L 23.585938 38.132812 L 23.554688 38.476562 C 23.515625 39.0625 23.253906 39.941406 22.753906 41.210938 C 22.21875 42.585938 21.816406 43.90625 21.71875 44.609375 C 21.660156 45.046875 21.679688 45.085938 21.914062 45.195312 L 22.167969 45.3125 L 22.101562 46.464844 C 22.011719 48.09375 22.167969 48.671875 22.558594 48.191406 C 22.753906 47.957031 22.851562 48.125 22.851562 48.710938 C 22.851562 49.472656 23.15625 50.859375 23.527344 51.804688 C 24.101562 53.300781 24.902344 54.519531 26.574219 56.445312 C 27.5 57.527344 27.519531 57.539062 27.765625 57.402344 C 27.921875 57.324219 28.058594 57.410156 28.605469 57.929688 C 28.964844 58.269531 29.464844 58.738281 29.71875 58.972656 C 29.980469 59.207031 30.273438 59.570312 30.371094 59.773438 C 30.792969 60.585938 31.652344 66.863281 31.894531 70.800781 C 31.964844 71.894531 31.835938 72.890625 31.601562 73.125 C 31.535156 73.191406 31.164062 73.300781 30.78125 73.339844 C 30.03125 73.4375 29.464844 73.671875 29.140625 74.042969 C 28.644531 74.578125 28.449219 75.339844 28.605469 76.121094 C 28.703125 76.589844 28.691406 76.621094 28.4375 76.835938 C 27.96875 77.234375 27.609375 77.371094 26.964844 77.402344 C 26.132812 77.441406 25.734375 77.527344 25.859375 77.65625 C 25.917969 77.714844 26.660156 77.703125 27.988281 77.625 C 30.011719 77.507812 30.050781 77.507812 31.59375 77.761719 C 33.546875 78.074219 34.25 78.113281 39.269531 78.171875 C 43.125 78.210938 43.652344 78.242188 43.652344 78.417969 C 43.652344 78.496094 38.371094 78.613281 33.808594 78.621094 C 31.476562 78.632812 30.664062 78.660156 30.695312 78.75 C 30.753906 78.925781 39.171875 79.011719 51.4375 78.984375 C 62.101562 78.945312 62.65625 78.933594 62.375 78.640625 C 62.335938 78.613281 58.867188 78.574219 54.660156 78.5625 C 47.207031 78.542969 45.949219 78.503906 46.027344 78.28125 C 46.054688 78.203125 46.816406 78.164062 48.496094 78.152344 C 50.890625 78.132812 51.738281 78.074219 53.859375 77.753906 C 55.167969 77.558594 55.507812 77.558594 56.886719 77.714844 C 57.589844 77.800781 60.410156 77.878906 65.089844 77.9375 C 69.015625 77.988281 72.414062 78.066406 72.65625 78.113281 C 74.289062 78.457031 73.488281 78.535156 68.117188 78.582031 C 65.429688 78.601562 63.136719 78.640625 63.019531 78.671875 C 62.265625 78.828125 63.410156 78.886719 68.339844 78.945312 C 74.746094 79.023438 75.410156 79.050781 75.371094 79.285156 C 75.351562 79.375 75.167969 79.53125 74.953125 79.636719 C 74.582031 79.824219 74.347656 79.832031 69.777344 79.851562 C 64.980469 79.871094 63.183594 79.929688 63.183594 80.078125 C 63.183594 80.234375 64.101562 80.273438 68.808594 80.273438 C 72.6875 80.273438 73.730469 80.300781 73.867188 80.398438 C 74.023438 80.515625 73.957031 80.59375 73.085938 81.269531 C 72.550781 81.667969 72.023438 82.050781 71.894531 82.117188 C 71.671875 82.234375 56.835938 82.441406 51.074219 82.402344 C 49.09375 82.390625 48.429688 82.421875 48.242188 82.519531 C 48.007812 82.644531 48.007812 82.644531 48.203125 82.722656 C 48.3125 82.761719 53.195312 82.8125 59.042969 82.839844 C 64.894531 82.871094 69.796875 82.917969 69.953125 82.957031 C 70.097656 82.996094 70.214844 83.054688 70.214844 83.09375 C 70.207031 83.191406 68.496094 84.179688 67.949219 84.394531 C 67.578125 84.539062 67.238281 84.589844 66.75 84.578125 C 65.585938 84.550781 49.972656 84.519531 45.851562 84.539062 C 43.703125 84.550781 39.746094 84.53125 37.050781 84.511719 L 32.167969 84.460938 L 31.191406 83.90625 C 30.011719 83.210938 29.921875 82.996094 30.761719 82.890625 C 31.054688 82.859375 33.605469 82.820312 36.425781 82.8125 C 41.621094 82.792969 42.65625 82.753906 42.382812 82.566406 C 42.296875 82.507812 39.699219 82.449219 35.449219 82.421875 C 30.480469 82.371094 28.585938 82.332031 28.390625 82.246094 C 28.027344 82.089844 26.300781 80.75 26.222656 80.574219 C 26.191406 80.496094 26.203125 80.398438 26.25 80.351562 C 26.308594 80.292969 33.828125 80.253906 44.445312 80.242188 C 60.46875 80.222656 62.550781 80.203125 62.550781 80.078125 C 62.550781 79.949219 61.320312 79.929688 52.148438 79.910156 C 46.425781 79.890625 38.195312 79.921875 33.839844 79.960938 C 29.492188 80 25.792969 80 25.617188 79.949219 C 25.167969 79.84375 24.589844 79.34375 22.753906 77.527344 C 19.707031 74.511719 17.617188 71.667969 15.644531 67.871094 C 13.066406 62.917969 11.75 57.890625 11.328125 51.464844 C 11.222656 49.890625 11.230469 49.394531 11.378906 47.65625 C 11.574219 45.214844 11.964844 42.820312 12.5 40.722656 C 13.273438 37.714844 13.9375 35.9375 15.34375 33.105469 C 16.867188 30.046875 18.371094 27.65625 20.039062 25.652344 C 20.480469 25.117188 20.558594 24.921875 20.507812 24.460938 C 20.488281 24.246094 20.148438 23.730469 20.03125 23.730469 C 19.980469 23.730469 19.53125 24.265625 19.023438 24.921875 C 14.992188 30.125 12.128906 36.238281 10.996094 42.089844 C 9.84375 47.957031 9.785156 51.542969 10.753906 56.933594 C 12.511719 66.804688 17.511719 75.175781 25.46875 81.53125 C 30.761719 85.769531 37.773438 88.710938 44.875 89.65625 C 46.796875 89.910156 50.421875 90.007812 52.441406 89.851562 C 58.253906 89.402344 62.695312 88.25 67.53125 85.945312 C 74.0625 82.820312 79.746094 77.675781 83.820312 71.210938 C 85.128906 69.128906 86.769531 65.652344 87.578125 63.230469 C 89.308594 58.09375 90.117188 52.285156 89.746094 47.800781 C 89.628906 46.445312 89.238281 43.671875 88.957031 42.246094 C 87.84375 36.589844 85.078125 30.417969 81.5625 25.761719 C 81.027344 25.046875 80.265625 24.089844 79.855469 23.632812 C 78.808594 22.429688 75.410156 19.21875 75.285156 19.296875 C 75.214844 19.335938 75.382812 19.578125 75.703125 19.910156 C 76.398438 20.625 76.699219 21.035156 77.433594 22.195312 C 77.753906 22.722656 78.59375 23.875 79.289062 24.753906 C 81.476562 27.527344 82.648438 29.316406 84.09375 32.078125 C 86.699219 37.058594 88.15625 42.304688 88.585938 48.289062 C 88.800781 51.238281 88.28125 56.367188 87.441406 59.570312 C 86.476562 63.308594 84.914062 67.058594 83.039062 70.144531 C 81.886719 72.050781 80.109375 74.53125 78.976562 75.828125 L 78.632812 76.21875 L 75.890625 76.25 C 73.945312 76.269531 73.144531 76.25 73.144531 76.171875 C 73.144531 76.113281 73.300781 75.769531 73.488281 75.417969 C 74.160156 74.160156 74.992188 71.171875 75.351562 68.75 C 75.449219 68.132812 75.527344 67.03125 75.527344 66.296875 C 75.539062 65.007812 75.527344 64.96875 75.273438 64.589844 C 74.882812 64.03125 74.921875 63.90625 75.480469 63.71875 C 76.054688 63.535156 76.289062 63.308594 76.015625 63.222656 C 75.292969 62.976562 74.71875 62.625 74.171875 62.109375 C 73.242188 61.210938 73.085938 60.625 73.828125 60.839844 C 74.015625 60.898438 74.269531 60.9375 74.386719 60.9375 L 74.601562 60.9375 L 74.367188 60.585938 C 74.171875 60.292969 74.121094 60.105469 74.121094 59.578125 C 74.121094 58.933594 74.054688 58.398438 73.820312 57.058594 C 73.632812 56.015625 73.867188 55.957031 74.269531 56.953125 C 74.375 57.226562 74.511719 57.46875 74.570312 57.488281 C 74.824219 57.578125 75.097656 55.917969 75.097656 54.316406 C 75.097656 53.71875 75.128906 53.222656 75.167969 53.222656 C 75.195312 53.222656 75.304688 53.289062 75.402344 53.378906 C 75.714844 53.652344 75.78125 53.457031 75.78125 52.324219 C 75.78125 51.316406 75.800781 51.230469 76.027344 50.957031 C 76.339844 50.585938 76.347656 49.988281 76.074219 48.398438 C 75.851562 47.058594 75.546875 46.101562 74.953125 44.851562 C 74.453125 43.789062 74.492188 43.660156 75.253906 43.894531 C 75.519531 43.972656 75.742188 44.042969 75.761719 44.042969 C 75.773438 44.042969 75.78125 43.984375 75.78125 43.90625 C 75.78125 43.828125 75.605469 43.554688 75.390625 43.308594 C 75.175781 43.066406 75 42.800781 75 42.742188 C 75 42.675781 75.410156 42.410156 75.917969 42.15625 C 76.789062 41.71875 77.746094 41.003906 77.636719 40.878906 C 77.609375 40.847656 77.257812 40.917969 76.855469 41.015625 C 75.539062 41.355469 75.539062 41.367188 76.867188 39.863281 C 78.585938 37.929688 79.542969 36.503906 79.472656 36.003906 C 79.445312 35.820312 79.375 35.859375 78.886719 36.367188 C 78.3125 36.953125 77.765625 37.402344 77.609375 37.402344 C 77.570312 37.402344 77.726562 37.128906 77.980469 36.785156 C 79.199219 35.125 79.941406 33.554688 79.707031 33.144531 C 79.628906 32.996094 79.523438 33.113281 79.074219 33.808594 C 78.605469 34.53125 78.320312 34.882812 78.320312 34.734375 C 78.320312 34.707031 78.429688 34.453125 78.554688 34.160156 C 79.316406 32.441406 79.746094 29.441406 79.355469 28.5625 L 79.21875 28.269531 L 79.113281 28.542969 C 79.054688 28.699219 79.003906 28.964844 78.996094 29.128906 C 78.984375 29.539062 78.878906 29.910156 78.761719 29.949219 C 78.703125 29.96875 78.664062 29.511719 78.652344 28.777344 C 78.644531 27.363281 78.28125 25.46875 77.824219 24.355469 C 77.511719 23.601562 76.699219 22.371094 75.78125 21.238281 C 74.933594 20.203125 73.066406 18.457031 72.335938 18.015625 C 71.972656 17.800781 71.152344 17.285156 70.5 16.875 C 69.296875 16.101562 69.199219 16.074219 67.667969 15.828125 C 67.316406 15.769531 66.738281 15.59375 66.398438 15.4375 C 65.3125 14.949219 64.238281 14.851562 61.796875 15.039062 Z M 65.558594 16.199219 C 67.675781 16.6875 70.109375 17.703125 70.851562 18.425781 C 71.046875 18.613281 71.183594 18.789062 71.164062 18.808594 C 71.144531 18.828125 70.625 18.59375 70.011719 18.28125 C 68.867188 17.703125 67.921875 17.34375 67.238281 17.246094 L 66.847656 17.1875 L 67.1875 17.351562 C 67.375 17.441406 67.929688 17.703125 68.410156 17.929688 C 69.25 18.320312 70.285156 19.011719 70.1875 19.109375 C 70.15625 19.140625 69.609375 18.953125 68.976562 18.71875 C 67.785156 18.261719 66.757812 17.957031 66.445312 17.976562 C 66.300781 17.976562 66.308594 18.007812 66.503906 18.085938 C 66.640625 18.152344 67.207031 18.398438 67.773438 18.652344 C 68.78125 19.089844 70.285156 19.980469 70.1875 20.078125 C 70.15625 20.105469 69.746094 19.929688 69.277344 19.695312 C 67.238281 18.671875 65.292969 18.4375 62.707031 18.894531 C 60.128906 19.34375 58.351562 20.234375 57.167969 21.660156 C 56.542969 22.410156 55.753906 23.984375 55.234375 25.488281 C 54.933594 26.355469 54.855469 26.511719 54.6875 26.492188 C 54.472656 26.464844 54.464844 26.503906 54.492188 27.636719 C 54.503906 28.191406 54.492188 28.25 54.367188 28.125 C 54.171875 27.929688 53.90625 27.128906 53.90625 26.746094 C 53.90625 26.550781 53.867188 26.464844 53.789062 26.492188 C 53.644531 26.53125 53.625 27.519531 53.742188 28.515625 C 53.808594 29.128906 53.808594 29.140625 53.652344 28.867188 C 53.300781 28.242188 53.125 27.507812 53.125 26.648438 C 53.125 26.179688 53.085938 25.769531 53.039062 25.742188 C 52.863281 25.632812 52.707031 26.667969 52.753906 27.644531 C 52.785156 28.183594 52.773438 28.613281 52.734375 28.613281 C 52.597656 28.613281 52.421875 28.054688 52.34375 27.351562 C 52.277344 26.6875 52.34375 25.339844 52.5 24.628906 C 52.550781 24.375 52.550781 24.375 52.394531 24.558594 C 52.316406 24.667969 52.1875 24.929688 52.128906 25.144531 C 51.925781 25.867188 51.828125 25.769531 51.886719 24.902344 C 51.945312 23.992188 52.238281 23.046875 52.792969 21.972656 C 53.253906 21.09375 53.789062 20.398438 54.980469 19.167969 C 55.898438 18.222656 56.113281 18.054688 56.984375 17.605469 C 58.292969 16.941406 60.546875 16.171875 61.769531 15.976562 C 62.421875 15.878906 64.71875 16.015625 65.558594 16.199219 Z M 66.261719 19.34375 C 66.933594 19.433594 67.960938 19.773438 67.863281 19.871094 C 67.84375 19.890625 67.558594 19.84375 67.238281 19.753906 C 66.867188 19.667969 65.910156 19.589844 64.601562 19.539062 C 62.871094 19.492188 62.609375 19.460938 62.890625 19.363281 C 63.332031 19.21875 65.304688 19.207031 66.261719 19.34375 Z M 61.816406 19.707031 C 61.816406 19.804688 61.464844 19.988281 60.371094 20.457031 C 58.808594 21.121094 57.765625 22.039062 56.828125 23.582031 C 56.542969 24.042969 56.300781 24.394531 56.269531 24.375 C 56.183594 24.277344 56.574219 23.320312 56.933594 22.773438 C 57.882812 21.296875 59.308594 20.261719 60.976562 19.824219 C 61.796875 19.609375 61.816406 19.597656 61.816406 19.707031 Z M 72.570312 20.625 C 73.078125 21.023438 73.527344 21.582031 73.320312 21.582031 C 73.253906 21.582031 72.902344 21.296875 72.558594 20.945312 C 71.886719 20.261719 71.886719 20.105469 72.570312 20.625 Z M 25.800781 26.328125 L 26.113281 26.492188 L 25.761719 26.667969 C 25.136719 26.992188 25.207031 27.070312 26.171875 27.167969 C 26.542969 27.207031 26.425781 27.382812 25.96875 27.460938 C 25.546875 27.539062 25.214844 27.722656 25.488281 27.742188 C 25.800781 27.753906 26.417969 27.839844 26.445312 27.878906 C 26.464844 27.898438 26.289062 27.996094 26.054688 28.105469 L 25.636719 28.289062 L 26.074219 28.40625 C 27.238281 28.71875 27.675781 28.867188 27.714844 28.984375 C 27.734375 29.0625 27.648438 29.101562 27.433594 29.101562 C 27.148438 29.101562 27.128906 29.121094 27.246094 29.226562 C 27.324219 29.304688 27.648438 29.460938 27.949219 29.589844 C 28.261719 29.707031 28.488281 29.84375 28.457031 29.890625 C 28.429688 29.941406 28.125 29.949219 27.773438 29.921875 C 27.011719 29.84375 26.933594 29.988281 27.617188 30.222656 C 28.300781 30.46875 29.511719 31.0625 29.453125 31.121094 C 29.425781 31.152344 29.210938 31.121094 28.964844 31.054688 C 28.214844 30.847656 28.125 30.964844 28.769531 31.367188 C 29.335938 31.71875 30.058594 32.371094 29.972656 32.460938 C 29.953125 32.488281 29.6875 32.351562 29.394531 32.167969 C 28.574219 31.648438 28.527344 31.765625 29.269531 32.546875 C 29.960938 33.28125 30.324219 33.875 30.429688 34.472656 L 30.488281 34.8125 L 30.214844 34.375 C 29.621094 33.398438 28.9375 32.722656 29.453125 33.613281 C 30.011719 34.597656 30.285156 36.210938 30.089844 37.390625 C 30 37.949219 29.484375 39.257812 29.355469 39.257812 C 29.328125 39.257812 29.328125 39.1875 29.355469 39.109375 C 29.394531 39.03125 29.386719 38.886719 29.347656 38.789062 C 29.296875 38.660156 29.179688 38.828125 28.867188 39.421875 C 28.4375 40.253906 27.929688 40.976562 27.199219 41.804688 C 26.953125 42.070312 26.757812 42.3125 26.757812 42.34375 C 26.757812 42.703125 29.894531 39.550781 30.371094 38.699219 C 30.617188 38.261719 30.78125 38.085938 30.949219 38.066406 C 31.132812 38.046875 31.242188 37.871094 31.554688 37.136719 C 32.179688 35.671875 32.355469 34.8125 32.304688 33.523438 C 32.277344 32.917969 32.277344 32.421875 32.316406 32.421875 C 32.34375 32.421875 32.511719 32.585938 32.6875 32.78125 L 33 33.152344 L 32.8125 32.421875 C 32.578125 31.511719 32.570312 31.375 32.753906 31.542969 C 33.058594 31.785156 33.527344 32.644531 33.75 33.347656 C 34.394531 35.390625 34.25 37.285156 33.234375 39.6875 C 32.8125 40.691406 33.253906 40.488281 33.722656 39.453125 C 34.199219 38.378906 34.484375 37.097656 34.484375 35.9375 C 34.492188 34.539062 34.296875 33.777344 33.535156 32.226562 C 32.746094 30.59375 32.734375 30.242188 33.515625 31.289062 C 33.917969 31.824219 34.140625 32.253906 34.316406 32.800781 C 34.972656 34.863281 35.078125 36.816406 34.640625 38.300781 C 34.492188 38.757812 34.199219 39.550781 33.984375 40.058594 C 33.535156 41.101562 33.507812 41.269531 33.789062 41.113281 C 34.445312 40.761719 35.421875 38.191406 35.546875 36.472656 L 35.617188 35.59375 L 35.625 36.433594 C 35.664062 38.191406 35.136719 40.058594 34.21875 41.453125 L 34.042969 41.726562 L 34.328125 41.660156 C 34.726562 41.5625 34.933594 41.347656 35.265625 40.722656 C 35.410156 40.429688 35.65625 40.007812 35.792969 39.792969 L 36.046875 39.402344 L 35.988281 39.785156 C 35.898438 40.332031 35.5 41.074219 34.960938 41.699219 C 34.199219 42.585938 34.21875 42.734375 35 42.128906 C 35.253906 41.933594 35.488281 41.804688 35.519531 41.835938 C 35.546875 41.863281 35.449219 42.070312 35.304688 42.285156 C 34.824219 42.96875 35.214844 42.890625 36.074219 42.117188 C 36.339844 41.882812 36.574219 41.707031 36.59375 41.726562 C 36.613281 41.757812 36.40625 42.148438 36.125 42.605469 C 35.851562 43.066406 35.644531 43.496094 35.664062 43.5625 C 35.683594 43.621094 36.074219 43.242188 36.523438 42.695312 C 36.984375 42.15625 37.363281 41.746094 37.382812 41.796875 C 37.402344 41.84375 37.082031 42.546875 36.679688 43.378906 C 35.597656 45.566406 35.664062 45.703125 36.855469 43.796875 C 37.753906 42.351562 38.085938 41.902344 38.085938 42.128906 C 38.085938 42.167969 37.765625 42.839844 37.363281 43.632812 C 36.554688 45.253906 36.183594 46.21875 36.09375 46.933594 L 36.035156 47.410156 L 36.222656 46.875 C 36.476562 46.121094 36.886719 45.273438 37.695312 43.796875 C 38.292969 42.703125 38.527344 42.214844 39.023438 41.0625 C 39.09375 40.898438 39.113281 40.925781 39.140625 41.210938 C 39.152344 41.414062 38.976562 42.3125 38.722656 43.300781 C 38.183594 45.378906 38.183594 45.800781 38.710938 44.707031 C 39.140625 43.789062 39.550781 42.566406 39.84375 41.269531 C 40.117188 40.085938 40.175781 40.175781 40.382812 42.03125 C 40.460938 42.734375 40.558594 43.464844 40.585938 43.652344 L 40.65625 43.992188 L 40.742188 43.652344 C 40.917969 42.949219 40.859375 40.828125 40.636719 39.851562 C 40.527344 39.34375 40.449219 38.914062 40.46875 38.894531 C 40.488281 38.867188 40.65625 39.03125 40.832031 39.246094 C 41.464844 40.046875 41.457031 39.480469 40.8125 38.59375 C 40.605469 38.300781 40.429688 38.015625 40.429688 37.976562 C 40.429688 37.9375 40.792969 37.898438 41.242188 37.898438 C 42.050781 37.898438 42.609375 37.800781 45.605469 37.167969 C 52.082031 35.800781 56.601562 35.535156 61.085938 36.289062 C 61.574219 36.367188 62.792969 36.628906 63.800781 36.863281 C 66.359375 37.480469 67.648438 37.449219 68.78125 36.777344 C 69.667969 36.238281 70.519531 34.863281 70.917969 33.28125 C 71.09375 32.578125 71.113281 32.292969 71.066406 31.121094 C 71.007812 29.695312 71.09375 29.453125 71.289062 30.535156 C 71.347656 30.90625 71.425781 31.316406 71.445312 31.464844 C 71.476562 31.621094 71.542969 31.738281 71.601562 31.738281 C 71.679688 31.738281 71.691406 31.425781 71.640625 30.742188 C 71.5625 29.453125 71.75 29.558594 71.925781 30.898438 C 71.984375 31.414062 72.070312 31.863281 72.101562 31.902344 C 72.167969 31.960938 72.363281 31.523438 72.363281 31.316406 C 72.363281 31.25 72.414062 31.132812 72.472656 31.054688 C 72.628906 30.828125 72.511719 32.546875 72.316406 33.289062 C 72.226562 33.632812 72.179688 33.925781 72.207031 33.953125 C 72.304688 34.050781 72.753906 33.105469 72.96875 32.324219 C 73.183594 31.523438 73.195312 31.503906 73.222656 31.914062 C 73.273438 32.539062 73.007812 33.425781 72.414062 34.617188 C 72.121094 35.203125 71.90625 35.703125 71.925781 35.730469 C 72.023438 35.828125 72.636719 35.027344 73.097656 34.21875 C 73.410156 33.660156 73.59375 33.40625 73.613281 33.523438 C 73.671875 33.828125 73.105469 34.882812 72.285156 35.976562 C 71.847656 36.5625 71.484375 37.050781 71.484375 37.070312 C 71.484375 37.214844 71.855469 37.039062 72.316406 36.667969 C 72.609375 36.425781 72.851562 36.269531 72.851562 36.316406 C 72.851562 36.367188 72.433594 36.855469 71.914062 37.390625 C 71.398438 37.9375 70.996094 38.40625 71.015625 38.4375 C 71.046875 38.464844 71.320312 38.398438 71.621094 38.289062 C 72.402344 38.015625 72.1875 38.242188 71.25 38.671875 C 70.8125 38.875 70.390625 39.109375 70.324219 39.199219 C 70.109375 39.453125 70.3125 39.773438 71.230469 40.644531 C 71.679688 41.0625 72.070312 41.492188 72.101562 41.601562 C 72.128906 41.707031 72.128906 41.796875 72.109375 41.796875 C 72.089844 41.796875 71.738281 41.53125 71.328125 41.210938 C 70.683594 40.691406 70.410156 40.535156 70.410156 40.664062 C 70.410156 40.683594 70.761719 41.09375 71.203125 41.5625 C 71.992188 42.429688 72.257812 42.820312 72.140625 42.9375 C 72.101562 42.96875 71.71875 42.65625 71.28125 42.246094 C 70.851562 41.824219 70.46875 41.511719 70.441406 41.53125 C 70.410156 41.5625 70.683594 41.992188 71.046875 42.5 C 71.40625 42.996094 71.757812 43.523438 71.847656 43.679688 C 71.972656 43.945312 71.972656 43.953125 71.808594 43.855469 C 71.710938 43.808594 71.367188 43.496094 71.046875 43.164062 C 70.351562 42.460938 69.726562 41.933594 69.726562 42.070312 C 69.726562 42.128906 70.03125 42.558594 70.402344 43.035156 C 70.773438 43.515625 71.210938 44.148438 71.378906 44.441406 C 71.867188 45.320312 71.757812 45.351562 71.054688 44.53125 C 69.855469 43.144531 68.398438 41.816406 69.269531 42.890625 C 70.117188 43.953125 71.484375 46.152344 71.484375 46.472656 C 71.484375 46.746094 71.054688 46.316406 70.136719 45.097656 C 69.179688 43.816406 68.417969 42.976562 68.3125 43.085938 C 68.28125 43.113281 68.496094 43.417969 68.78125 43.769531 C 69.367188 44.492188 70.15625 45.691406 70.558594 46.484375 C 70.890625 47.128906 71.308594 48.25 71.25 48.308594 C 71.230469 48.328125 70.78125 47.703125 70.253906 46.914062 C 69.71875 46.121094 69.121094 45.300781 68.917969 45.078125 C 68.566406 44.6875 68.566406 44.695312 69.0625 45.507812 C 69.640625 46.453125 70.039062 47.3125 70.371094 48.28125 C 70.753906 49.375 70.636719 49.394531 70.019531 48.339844 C 69.796875 47.957031 69.582031 47.65625 69.53125 47.65625 C 69.484375 47.65625 69.53125 47.949219 69.640625 48.308594 C 69.824219 48.953125 70.03125 49.753906 70.15625 50.3125 C 70.265625 50.808594 70.050781 50.59375 69.640625 49.824219 C 69.277344 49.140625 69.25 49.101562 69.238281 49.394531 C 69.238281 49.570312 69.328125 50.097656 69.425781 50.566406 C 69.855469 52.527344 69.765625 52.898438 69.238281 51.335938 C 69.074219 50.847656 68.878906 50.332031 68.800781 50.195312 C 68.671875 49.96875 68.664062 49.96875 68.644531 50.144531 C 68.625 50.507812 68.664062 51.023438 68.761719 51.707031 C 68.820312 52.078125 68.847656 52.585938 68.828125 52.832031 L 68.800781 53.269531 L 68.671875 52.832031 C 68.398438 51.835938 67.65625 49.597656 67.609375 49.636719 C 67.589844 49.667969 67.636719 50.183594 67.726562 50.789062 C 67.890625 52.019531 68.15625 54.910156 68.105469 54.96875 C 68.039062 55.046875 67.851562 54.402344 67.714844 53.613281 C 67.480469 52.246094 67.375 51.855469 67.226562 51.855469 C 67.121094 51.855469 67.101562 51.953125 67.140625 52.214844 C 67.226562 52.929688 67.402344 56.160156 67.355469 56.21875 C 67.265625 56.296875 67.03125 55.761719 66.894531 55.195312 C 66.777344 54.667969 66.601562 54.511719 66.601562 54.921875 C 66.601562 55.046875 66.757812 55.886719 66.945312 56.796875 C 67.324219 58.660156 67.355469 58.933594 67.140625 58.847656 C 66.925781 58.769531 66.769531 59.492188 66.828125 60.253906 C 66.855469 60.605469 66.992188 61.210938 67.128906 61.589844 C 67.363281 62.273438 67.363281 62.304688 67.1875 62.402344 C 66.964844 62.519531 67.042969 62.898438 67.421875 63.652344 C 67.570312 63.945312 67.667969 64.199219 67.636719 64.226562 C 67.609375 64.257812 67.472656 64.1875 67.324219 64.070312 C 67.1875 63.964844 67.03125 63.894531 66.984375 63.925781 C 66.867188 63.992188 66.992188 64.21875 67.433594 64.734375 C 68.222656 65.691406 67.636719 65.46875 66.308594 64.316406 C 65.734375 63.808594 65.675781 63.777344 65.605469 63.964844 C 65.519531 64.207031 65.429688 64.207031 65.078125 63.945312 C 64.09375 63.210938 63.214844 62.15625 62.589844 60.964844 C 62.363281 60.546875 62.167969 60.183594 62.140625 60.15625 C 62.109375 60.125 62.109375 60.378906 62.140625 60.710938 C 62.167969 61.054688 62.148438 61.328125 62.109375 61.328125 C 61.964844 61.328125 61.515625 60.710938 61.191406 60.066406 C 60.449219 58.59375 59.972656 56.433594 60.109375 55.125 L 60.167969 54.539062 L 59.953125 54.785156 C 59.757812 55.019531 59.746094 55.097656 59.785156 56.472656 C 59.816406 57.265625 59.796875 57.9375 59.757812 57.957031 C 59.71875 57.988281 59.601562 57.773438 59.503906 57.5 C 59.210938 56.628906 59.269531 54.832031 59.667969 52.734375 C 60.078125 50.644531 60.136719 48.710938 59.824219 47.703125 C 59.601562 46.960938 59.238281 46.277344 58.878906 45.9375 L 58.59375 45.664062 L 58.789062 46.238281 C 59.042969 46.980469 59.277344 48.320312 59.269531 48.964844 C 59.257812 49.460938 59.257812 49.453125 59.074219 48.632812 C 58.867188 47.734375 58.371094 46.609375 57.96875 46.140625 L 57.714844 45.847656 L 57.8125 46.121094 C 57.960938 46.53125 58.371094 48.035156 58.4375 48.4375 C 58.496094 48.757812 58.410156 50.242188 58.339844 50.164062 C 58.320312 50.144531 58.195312 49.609375 58.066406 48.964844 C 57.929688 48.320312 57.734375 47.558594 57.628906 47.273438 C 57.433594 46.746094 57.03125 46.09375 56.925781 46.09375 C 56.886719 46.09375 56.964844 46.433594 57.101562 46.84375 C 57.257812 47.34375 57.355469 47.949219 57.394531 48.601562 C 57.480469 50.058594 57.355469 50.164062 57.0625 48.875 C 56.816406 47.78125 56.347656 46.582031 56.074219 46.355469 C 55.988281 46.296875 55.949219 46.277344 55.976562 46.335938 C 56.113281 46.570312 56.359375 48.398438 56.300781 48.71875 C 56.230469 49.0625 56.210938 49.042969 55.910156 48.125 C 55.605469 47.214844 55.3125 46.609375 55.214844 46.707031 C 55.195312 46.726562 55.214844 47.058594 55.273438 47.449219 C 55.324219 47.839844 55.34375 48.269531 55.3125 48.40625 C 55.253906 48.621094 55.207031 48.5625 54.933594 47.878906 C 54.621094 47.109375 54.308594 46.542969 54.230469 46.609375 C 54.210938 46.640625 54.257812 46.953125 54.335938 47.324219 C 54.53125 48.261719 54.589844 48.847656 54.503906 49.070312 C 54.445312 49.21875 54.355469 49.082031 54.101562 48.40625 C 53.925781 47.9375 53.742188 47.527344 53.691406 47.5 C 53.644531 47.46875 53.632812 47.957031 53.671875 48.652344 C 53.742188 49.882812 53.664062 50.058594 53.417969 49.265625 C 53.175781 48.496094 52.714844 47.363281 52.648438 47.363281 C 52.609375 47.363281 52.609375 47.566406 52.648438 47.820312 C 52.6875 48.085938 52.726562 48.554688 52.726562 48.875 C 52.726562 49.402344 52.714844 49.441406 52.589844 49.277344 C 52.511719 49.179688 52.335938 48.75 52.199219 48.328125 C 52.050781 47.910156 51.855469 47.460938 51.757812 47.34375 C 51.535156 47.070312 51.535156 47.050781 51.710938 47.96875 C 51.847656 48.679688 51.816406 49.421875 51.660156 49.246094 C 51.621094 49.207031 51.464844 48.847656 51.320312 48.464844 C 51.054688 47.753906 50.695312 47.167969 50.695312 47.460938 C 50.695312 47.539062 50.753906 47.871094 50.832031 48.191406 C 50.988281 48.828125 51.027344 49.707031 50.898438 49.707031 C 50.859375 49.707031 50.65625 49.304688 50.449219 48.828125 C 49.902344 47.539062 49.757812 47.578125 50.050781 48.925781 C 50.207031 49.636719 50.246094 50.429688 50.109375 50.351562 C 50.070312 50.320312 49.894531 49.929688 49.71875 49.492188 C 49.550781 49.042969 49.347656 48.574219 49.257812 48.4375 C 49.121094 48.203125 49.113281 48.222656 49.160156 48.777344 C 49.199219 49.101562 49.238281 49.714844 49.269531 50.144531 L 49.328125 50.925781 L 48.898438 49.902344 C 48.417969 48.757812 48.242188 48.398438 48.183594 48.457031 C 48.164062 48.484375 48.214844 48.933594 48.292969 49.472656 C 48.371094 50 48.4375 50.515625 48.4375 50.613281 C 48.4375 50.90625 48.28125 50.722656 48.097656 50.222656 C 47.824219 49.472656 47.34375 48.4375 47.265625 48.4375 C 47.226562 48.4375 47.257812 48.796875 47.335938 49.226562 C 47.414062 49.667969 47.460938 50.183594 47.441406 50.378906 C 47.414062 50.710938 47.382812 50.664062 46.972656 49.714844 C 46.417969 48.417969 46.25 48.339844 46.496094 49.480469 C 46.679688 50.398438 46.738281 51.375 46.59375 51.210938 C 46.542969 51.160156 46.398438 50.800781 46.25 50.417969 C 46.113281 50.027344 45.890625 49.5 45.761719 49.246094 C 45.558594 48.855469 45.519531 48.816406 45.507812 49.023438 C 45.507812 49.160156 45.597656 49.714844 45.703125 50.273438 C 45.929688 51.40625 45.929688 51.464844 45.820312 51.464844 C 45.773438 51.464844 45.546875 51.015625 45.324219 50.457031 C 45.097656 49.910156 44.855469 49.355469 44.777344 49.21875 C 44.648438 48.992188 44.640625 48.992188 44.628906 49.167969 C 44.628906 49.285156 44.71875 49.785156 44.824219 50.292969 C 44.941406 50.789062 45.011719 51.347656 45 51.503906 C 44.960938 51.824219 45 51.894531 44.074219 49.921875 C 43.945312 49.648438 43.800781 49.414062 43.761719 49.414062 C 43.710938 49.414062 43.828125 50.019531 44.003906 50.75 C 44.523438 52.859375 44.425781 52.957031 43.574219 51.179688 C 43.007812 49.980469 42.792969 49.902344 43.164062 51.023438 C 43.28125 51.367188 43.359375 51.777344 43.339844 51.921875 C 43.300781 52.195312 43.292969 52.1875 42.695312 51.5625 C 42.023438 50.847656 41.925781 50.9375 42.433594 51.785156 C 42.921875 52.597656 43.085938 52.929688 42.988281 52.929688 C 42.832031 52.929688 42.070312 52.117188 41.535156 51.375 C 41.230469 50.964844 40.949219 50.585938 40.890625 50.535156 C 40.683594 50.320312 40.917969 51.191406 41.300781 52.058594 C 41.523438 52.558594 41.679688 52.976562 41.652344 53.007812 C 41.554688 53.105469 40.871094 52.351562 40.480469 51.71875 C 40.265625 51.367188 40.058594 51.082031 40.019531 51.074219 C 39.824219 51.0625 40.167969 52.148438 40.859375 53.730469 C 41.105469 54.304688 40.851562 54.207031 40.128906 53.464844 C 39.785156 53.113281 39.492188 52.859375 39.472656 52.910156 C 39.464844 52.957031 39.582031 53.359375 39.738281 53.796875 C 39.894531 54.226562 39.992188 54.589844 39.953125 54.589844 C 39.84375 54.589844 39.074219 53.535156 38.820312 53.027344 C 38.332031 52.070312 37.910156 50.300781 37.734375 48.496094 C 37.628906 47.390625 37.453125 47.976562 37.460938 49.460938 C 37.460938 50.59375 37.675781 52.097656 37.960938 53.015625 C 38.078125 53.417969 37.589844 52.664062 37.402344 52.167969 C 37.003906 51.101562 36.886719 50.183594 36.945312 48.484375 C 36.992188 46.972656 36.992188 46.933594 36.835938 47.363281 C 36.71875 47.703125 36.679688 48.242188 36.679688 49.804688 L 36.671875 51.804688 L 37.042969 53.105469 C 37.257812 53.828125 37.402344 54.433594 37.375 54.460938 C 37.277344 54.550781 36.828125 53.640625 36.457031 52.597656 C 36.09375 51.550781 36.085938 51.53125 36.054688 51.953125 C 36.007812 52.65625 36.347656 53.984375 36.953125 55.390625 C 37.089844 55.710938 37.089844 55.75 36.964844 55.691406 C 36.875 55.664062 36.632812 55.378906 36.417969 55.066406 C 36.203125 54.746094 36.007812 54.492188 35.976562 54.492188 C 35.890625 54.492188 36.074219 55.058594 36.445312 55.898438 C 36.652344 56.367188 36.796875 56.785156 36.769531 56.816406 C 36.738281 56.84375 36.515625 56.679688 36.28125 56.445312 C 35.890625 56.0625 35.839844 56.042969 35.839844 56.230469 C 35.839844 56.347656 35.949219 56.726562 36.085938 57.089844 C 36.222656 57.441406 36.328125 57.78125 36.328125 57.851562 C 36.328125 57.910156 36.105469 57.714844 35.832031 57.421875 C 35.371094 56.914062 35.34375 56.902344 35.402344 57.175781 C 35.441406 57.332031 35.636719 57.859375 35.839844 58.347656 C 36.046875 58.828125 36.191406 59.246094 36.171875 59.265625 C 36.152344 59.296875 35.957031 59.140625 35.742188 58.933594 C 35.390625 58.582031 35.351562 58.574219 35.351562 58.769531 C 35.351562 58.894531 35.480469 59.238281 35.636719 59.550781 C 36.074219 60.429688 36.085938 60.527344 35.800781 60.644531 L 35.558594 60.730469 L 35.703125 61.179688 C 35.890625 61.71875 35.832031 61.972656 35.558594 61.816406 C 35.449219 61.765625 35.351562 61.71875 35.332031 61.71875 C 35.304688 61.71875 35.34375 62.039062 35.410156 62.421875 C 35.46875 62.8125 35.546875 63.4375 35.585938 63.816406 L 35.636719 64.5 L 35.460938 63.964844 C 35.265625 63.359375 35.070312 62.957031 35.058594 63.164062 C 35.058594 63.242188 35.148438 64.0625 35.265625 65 C 35.480469 66.863281 35.46875 67.390625 35.234375 66.40625 L 35.078125 65.769531 L 35.070312 66.445312 C 35.070312 66.824219 35.128906 67.539062 35.226562 68.027344 C 35.371094 68.875 35.371094 68.964844 35.226562 69.355469 C 35.117188 69.636719 35.058594 70.078125 35.058594 70.652344 C 35.058594 72.078125 34.601562 73.796875 34.308594 73.503906 C 34.269531 73.464844 34.289062 73.066406 34.355469 72.625 C 34.503906 71.640625 34.511719 68.027344 34.375 66.160156 C 34.121094 62.722656 33.605469 60.976562 32.160156 58.738281 C 31.035156 56.980469 30.480469 55.683594 30.128906 53.953125 C 30.039062 53.523438 29.902344 53.105469 29.816406 53.027344 C 29.53125 52.753906 29.71875 54.804688 30.109375 56.347656 C 30.304688 57.070312 30.441406 57.683594 30.421875 57.695312 C 30.402344 57.714844 30.050781 57.226562 29.628906 56.601562 C 29.21875 55.984375 28.839844 55.496094 28.800781 55.527344 C 28.75 55.554688 28.742188 55.828125 28.769531 56.132812 L 28.820312 56.6875 L 28.449219 56.289062 C 28.242188 56.0625 27.773438 55.339844 27.421875 54.675781 C 26.679688 53.300781 26.515625 53.046875 26.40625 53.144531 C 26.367188 53.191406 26.417969 53.5625 26.515625 53.992188 C 26.613281 54.414062 26.660156 54.8125 26.640625 54.890625 C 26.5625 55.105469 25.9375 53.769531 25.597656 52.683594 C 25.226562 51.472656 25.148438 51.347656 24.953125 51.601562 C 24.835938 51.757812 24.835938 51.980469 24.941406 52.441406 C 24.941406 52.46875 24.914062 52.507812 24.855469 52.527344 C 24.679688 52.597656 24.328125 51.816406 24.054688 50.730469 C 23.789062 49.714844 23.78125 49.550781 23.789062 47.488281 C 23.789062 45.085938 23.78125 45.058594 23.234375 46.082031 L 22.941406 46.628906 L 22.988281 45.898438 C 23.019531 45.390625 23.136719 44.871094 23.378906 44.199219 C 23.574219 43.660156 23.722656 43.183594 23.691406 43.125 C 23.671875 43.066406 23.457031 43.230469 23.203125 43.496094 C 22.960938 43.757812 22.734375 43.953125 22.707031 43.933594 C 22.597656 43.816406 23.9375 40.4375 24.238281 40.097656 C 24.289062 40.039062 24.453125 40.136719 24.660156 40.332031 L 25 40.664062 L 25 40.253906 C 25 40.019531 24.914062 39.597656 24.816406 39.304688 C 24.609375 38.738281 24.679688 38.601562 24.941406 39.011719 C 25.03125 39.148438 25.136719 39.257812 25.1875 39.257812 C 25.3125 39.257812 25.488281 38.699219 25.488281 38.320312 C 25.488281 37.9375 25.597656 37.898438 25.8125 38.203125 L 25.96875 38.425781 L 25.96875 38.210938 C 25.976562 37.890625 25.480469 37.382812 24.707031 36.921875 C 24.328125 36.699219 24.023438 36.492188 24.023438 36.464844 C 24.023438 36.394531 24.824219 36.816406 25.148438 37.058594 C 25.460938 37.285156 26.015625 37.597656 26.132812 37.597656 C 26.164062 37.597656 26.171875 37.460938 26.144531 37.304688 C 26.09375 37.078125 26.113281 37.011719 26.242188 37.011719 C 26.367188 37.011719 26.386719 36.933594 26.339844 36.570312 C 26.300781 36.328125 26.308594 36.132812 26.347656 36.132812 C 26.386719 36.132812 26.554688 36.375 26.710938 36.667969 C 27.148438 37.480469 27.296875 37.324219 27.003906 36.367188 C 26.789062 35.652344 26.816406 35.566406 27.148438 35.886719 C 27.5 36.230469 27.511719 36.132812 27.207031 35.332031 C 27.082031 34.988281 26.945312 34.628906 26.90625 34.519531 C 26.855469 34.382812 26.933594 34.433594 27.140625 34.65625 C 27.316406 34.832031 27.472656 34.960938 27.5 34.929688 C 27.609375 34.832031 27.101562 33.953125 26.730469 33.582031 L 26.339844 33.203125 L 26.640625 33.203125 C 27.082031 33.203125 26.953125 32.957031 26.359375 32.664062 C 25.753906 32.351562 25.683594 32.226562 26.113281 32.226562 C 26.308594 32.226562 26.464844 32.1875 26.464844 32.148438 C 26.464844 32.097656 26.222656 31.933594 25.910156 31.785156 C 25.246094 31.445312 24.84375 31.121094 24.660156 30.761719 C 24.582031 30.613281 24.414062 30.46875 24.277344 30.429688 C 24.140625 30.398438 23.917969 30.183594 23.761719 29.960938 C 23.566406 29.675781 23.378906 29.519531 23.144531 29.453125 C 22.695312 29.335938 22.695312 29.324219 22.902344 29.101562 C 23.136719 28.835938 23.039062 28.757812 22.648438 28.894531 C 22.199219 29.050781 22.089844 29.03125 22.050781 28.777344 C 22.03125 28.601562 21.972656 28.574219 21.757812 28.59375 C 21.5625 28.613281 21.484375 28.582031 21.484375 28.476562 C 21.484375 28.25 23 27.097656 23.925781 26.609375 C 24.835938 26.132812 25.292969 26.0625 25.800781 26.328125 Z M 33.027344 27.617188 C 33.722656 28.152344 34.726562 29.304688 35.109375 30 C 35.246094 30.253906 35.34375 30.46875 35.3125 30.46875 C 35.292969 30.46875 34.933594 30.058594 34.523438 29.558594 C 34.113281 29.070312 33.429688 28.367188 33.007812 28.007812 C 32.167969 27.285156 32.050781 27.148438 32.265625 27.148438 C 32.34375 27.148438 32.6875 27.363281 33.027344 27.617188 Z M 33.222656 28.59375 C 33.800781 29.140625 34.511719 30.105469 35.058594 31.101562 L 35.382812 31.6875 L 34.882812 31.210938 C 34.609375 30.9375 34.355469 30.75 34.328125 30.78125 C 34.296875 30.808594 34.386719 31.09375 34.53125 31.40625 C 35.207031 32.910156 35.382812 33.875 34.785156 32.761719 C 34.582031 32.382812 34.199219 31.746094 33.9375 31.347656 C 33.664062 30.945312 33.359375 30.417969 33.253906 30.183594 C 33.078125 29.785156 33.078125 29.753906 33.242188 29.636719 C 33.410156 29.511719 33.390625 29.472656 33.019531 28.933594 C 32.804688 28.621094 32.53125 28.242188 32.402344 28.085938 L 32.1875 27.800781 L 32.433594 27.929688 C 32.558594 28.007812 32.921875 28.300781 33.222656 28.59375 Z M 23.066406 32.507812 C 22.824219 32.839844 22.335938 32.871094 22.285156 32.539062 C 22.257812 32.371094 22.296875 32.324219 22.492188 32.324219 C 22.617188 32.324219 22.824219 32.207031 22.960938 32.070312 L 23.195312 31.816406 L 23.222656 32.039062 C 23.242188 32.15625 23.175781 32.371094 23.066406 32.507812 Z M 23.761719 35.410156 C 24.316406 35.59375 24.328125 35.683594 23.769531 35.527344 C 23.566406 35.46875 23.058594 35.359375 22.65625 35.292969 L 21.925781 35.15625 L 22.609375 35.203125 C 22.988281 35.234375 23.507812 35.320312 23.761719 35.410156 Z M 22.304688 36.316406 C 23.242188 37.019531 23.878906 37.617188 24.042969 37.9375 C 24.101562 38.046875 23.800781 37.800781 23.378906 37.390625 C 22.949219 36.992188 22.335938 36.472656 22.003906 36.25 C 21.425781 35.859375 21.191406 35.644531 21.347656 35.644531 C 21.386719 35.644531 21.816406 35.945312 22.304688 36.316406 Z M 23.195312 36.082031 C 23.574219 36.269531 23.769531 36.394531 23.644531 36.367188 C 23.28125 36.269531 22.199219 35.761719 22.363281 35.75 C 22.441406 35.75 22.824219 35.898438 23.195312 36.082031 Z M 53.554688 57.382812 C 53.585938 57.46875 53.613281 57.722656 53.613281 57.957031 C 53.613281 59.128906 54.179688 61.015625 55.039062 62.695312 C 55.546875 63.691406 55.820312 64.089844 57.441406 66.210938 C 58.332031 67.363281 58.554688 67.949219 58.46875 68.894531 C 58.398438 69.589844 57.988281 70.691406 57.375 71.824219 C 56.699219 73.074219 56.300781 73.339844 55.148438 73.339844 C 54.835938 73.339844 54.445312 73.398438 54.269531 73.464844 C 53.410156 73.828125 52.832031 74.726562 52.832031 75.691406 C 52.832031 76.464844 52.6875 76.609375 51.660156 76.816406 C 50.96875 76.960938 50.332031 76.992188 47.753906 76.980469 C 45.195312 76.972656 44.132812 76.921875 41.378906 76.679688 C 39.5625 76.523438 38.046875 76.367188 38.027344 76.335938 C 38 76.308594 38.144531 75.898438 38.359375 75.417969 C 39.054688 73.875 39.433594 72.546875 39.6875 70.800781 C 39.816406 69.941406 39.875 69.746094 40.097656 69.550781 C 40.332031 69.324219 40.34375 69.285156 40.285156 68.601562 C 40.234375 68.066406 40.246094 67.878906 40.34375 67.8125 C 40.410156 67.773438 40.480469 67.78125 40.507812 67.851562 C 40.558594 68.015625 40.792969 67.996094 40.859375 67.8125 C 40.890625 67.722656 40.917969 67.246094 40.917969 66.746094 C 40.917969 65.90625 41.007812 65.566406 41.164062 65.820312 C 41.191406 65.867188 41.28125 65.917969 41.359375 65.917969 C 41.503906 65.917969 41.59375 65.554688 41.894531 63.671875 C 42.011719 62.949219 42.121094 62.34375 42.140625 62.324219 C 42.226562 62.226562 42.480469 62.460938 42.480469 62.644531 C 42.480469 62.773438 42.519531 62.898438 42.570312 62.9375 C 42.6875 63.007812 42.871094 62.683594 42.871094 62.402344 C 42.871094 62.265625 42.921875 62.207031 43.039062 62.226562 C 43.242188 62.265625 43.632812 61.699219 43.9375 60.925781 C 44.0625 60.613281 44.210938 60.351562 44.25 60.351562 C 44.394531 60.351562 44.453125 60.828125 44.394531 61.503906 L 44.328125 62.15625 L 44.765625 61.6875 C 45.011719 61.433594 45.363281 60.917969 45.546875 60.546875 C 45.722656 60.175781 45.910156 59.902344 45.9375 59.929688 C 45.96875 59.96875 45.996094 60.183594 45.996094 60.417969 C 45.996094 61.0625 46.132812 60.996094 46.90625 59.960938 C 47.160156 59.617188 47.304688 59.511719 47.597656 59.460938 C 47.863281 59.421875 48.105469 59.265625 48.476562 58.894531 C 49.035156 58.347656 49.160156 58.300781 49.316406 58.59375 C 49.414062 58.777344 49.433594 58.777344 49.738281 58.632812 C 49.914062 58.542969 50.3125 58.261719 50.636719 58.007812 C 51.203125 57.566406 51.582031 57.324219 51.710938 57.324219 C 51.75 57.324219 51.75 57.449219 51.710938 57.617188 C 51.621094 58.015625 51.847656 58.007812 52.539062 57.566406 C 53.125 57.195312 53.457031 57.136719 53.554688 57.382812 Z M 55.65625 60.886719 C 55.820312 61.425781 56.046875 62.039062 56.152344 62.253906 L 56.347656 62.644531 L 56.289062 62.109375 C 56.261719 61.816406 56.210938 61.484375 56.183594 61.375 C 56.152344 61.269531 56.679688 62.273438 57.355469 63.621094 C 58.789062 66.484375 58.898438 66.765625 58.242188 65.957031 C 57.988281 65.644531 57.433594 64.96875 57.011719 64.460938 C 56.59375 63.945312 56.074219 63.191406 55.859375 62.753906 C 55.429688 61.894531 54.785156 60.242188 54.785156 60.019531 C 54.785156 59.882812 55.167969 59.753906 55.285156 59.851562 C 55.3125 59.890625 55.480469 60.351562 55.65625 60.886719 Z M 32.167969 64.453125 C 32.324219 65.273438 32.5 67.675781 32.394531 67.578125 C 32.324219 67.507812 31.953125 64.980469 31.886719 64.0625 C 31.808594 63.125 31.953125 63.320312 32.167969 64.453125 Z M 58.292969 64.375 C 58.4375 64.792969 58.371094 64.8125 58.175781 64.402344 C 58.085938 64.21875 58.046875 64.0625 58.097656 64.0625 C 58.144531 64.0625 58.234375 64.199219 58.292969 64.375 Z M 67.1875 66.425781 C 69.863281 67.988281 70.265625 68.398438 70.234375 69.539062 C 70.214844 70.613281 69.589844 73.007812 69.238281 73.378906 C 69.121094 73.496094 68.847656 73.582031 68.378906 73.632812 C 67.179688 73.757812 66.503906 74.335938 66.164062 75.527344 C 66.074219 75.839844 65.929688 76.113281 65.820312 76.171875 C 65.617188 76.277344 61.054688 76.308594 60.3125 76.210938 C 60.019531 76.160156 59.863281 76.09375 59.863281 76.003906 C 59.863281 75.925781 60.167969 75.507812 60.539062 75.066406 C 61.515625 73.90625 62.277344 72.675781 63.429688 70.390625 C 64.328125 68.632812 64.472656 68.28125 64.570312 67.605469 C 64.628906 67.1875 64.746094 66.765625 64.835938 66.667969 C 64.914062 66.570312 65 66.238281 65.019531 65.917969 C 65.050781 65.527344 65.109375 65.332031 65.1875 65.332031 C 65.253906 65.332031 66.164062 65.828125 67.1875 66.425781 Z M 59.277344 70.039062 C 59.074219 70.886719 58.46875 72.304688 57.882812 73.261719 C 57.589844 73.757812 57.246094 74.472656 57.140625 74.851562 C 56.875 75.75 56.613281 76.152344 56.191406 76.328125 C 55.460938 76.628906 54.902344 76.230469 55.03125 75.476562 C 55.097656 75.105469 55.089844 75.085938 54.914062 75.183594 C 54.648438 75.320312 54.542969 75.476562 54.40625 75.898438 C 54.269531 76.308594 54.035156 76.386719 53.769531 76.113281 C 53.339844 75.691406 53.867188 74.589844 54.660156 74.257812 C 54.835938 74.179688 55.265625 74.121094 55.617188 74.121094 C 55.96875 74.121094 56.398438 74.0625 56.574219 73.984375 C 57.285156 73.679688 58 72.585938 58.789062 70.605469 C 59.257812 69.441406 59.277344 69.402344 59.347656 69.472656 C 59.375 69.5 59.347656 69.753906 59.277344 70.039062 Z M 31.679688 74.21875 C 31.835938 74.277344 31.933594 74.382812 31.933594 74.5 C 31.933594 74.707031 31.144531 76.003906 30.949219 76.121094 C 30.890625 76.160156 30.761719 76.113281 30.644531 76.015625 C 30.488281 75.867188 30.460938 75.761719 30.507812 75.46875 C 30.617188 74.773438 30.070312 75.105469 29.941406 75.800781 C 29.855469 76.296875 29.550781 76.308594 29.394531 75.828125 C 29.230469 75.3125 29.582031 74.636719 30.175781 74.335938 C 30.636719 74.109375 31.261719 74.050781 31.679688 74.21875 Z M 70.097656 74.753906 C 70.832031 74.980469 71.035156 75.203125 70.96875 75.75 C 70.898438 76.335938 70.675781 76.542969 69.933594 76.667969 C 69.074219 76.824219 68.898438 76.726562 68.683594 75.976562 C 68.566406 75.535156 68.476562 75.390625 68.371094 75.410156 C 68.253906 75.429688 68.203125 75.59375 68.164062 76.003906 C 68.105469 76.609375 68 76.757812 67.558594 76.757812 C 66.992188 76.757812 66.828125 75.75 67.277344 75.117188 C 67.617188 74.636719 68.007812 74.492188 68.847656 74.550781 C 69.25 74.578125 69.816406 74.667969 70.097656 74.753906 Z M 34.785156 74.890625 C 35.96875 75.300781 36.308594 75.644531 36.007812 76.113281 C 35.792969 76.433594 34.679688 77.050781 34.316406 77.050781 C 33.808594 77.039062 33.488281 76.628906 33.566406 76.09375 C 33.605469 75.847656 33.585938 75.78125 33.457031 75.78125 C 33.292969 75.78125 33.066406 76.160156 32.960938 76.628906 C 32.910156 76.882812 32.84375 76.953125 32.667969 76.953125 C 32.34375 76.953125 32.199219 76.628906 32.257812 76.09375 C 32.304688 75.605469 32.539062 75.242188 33.007812 74.921875 C 33.410156 74.648438 34.042969 74.636719 34.785156 74.890625 Z M 66.007812 85.144531 C 66.105469 85.214844 66.085938 85.261719 65.910156 85.390625 C 65.558594 85.632812 64.816406 85.820312 63.683594 85.9375 C 63.117188 85.996094 62.53125 86.101562 62.363281 86.179688 L 62.0625 86.308594 L 62.492188 86.375 C 62.863281 86.445312 62.902344 86.472656 62.753906 86.570312 C 62.667969 86.640625 62.167969 86.84375 61.640625 87.019531 L 60.695312 87.351562 L 53.125 87.324219 C 48.203125 87.292969 44.785156 87.324219 43.359375 87.402344 C 41.464844 87.5 41.027344 87.5 40.1875 87.371094 C 39.054688 87.195312 37.050781 86.621094 37.089844 86.472656 C 37.101562 86.414062 37.472656 86.367188 37.910156 86.347656 C 38.828125 86.316406 39.042969 86.269531 38.898438 86.121094 C 38.847656 86.074219 38.078125 86.015625 37.199219 85.996094 C 35.5 85.957031 35.03125 85.878906 34.472656 85.535156 C 33.671875 85.046875 33.242188 85.058594 50.1875 85.058594 C 58.808594 85.058594 65.929688 85.097656 66.007812 85.144531 Z M 52.667969 87.890625 C 55.304688 87.890625 57.433594 87.910156 57.402344 87.9375 C 57.316406 88.027344 54.171875 88.457031 52.707031 88.574219 C 49.738281 88.828125 45.441406 88.601562 42.96875 88.074219 C 42.003906 87.859375 42.753906 87.792969 45.402344 87.839844 C 46.769531 87.871094 50.039062 87.890625 52.667969 87.890625 Z M 52.667969 87.890625 "/>
<path style=" stroke:none;fill-rule:nonzero;fill:rgb(0%,0%,0%);fill-opacity:1;" d="M 63.117188 17.988281 C 61.828125 18.09375 59.765625 18.75 59.765625 19.050781 C 59.765625 19.109375 59.796875 19.128906 59.84375 19.109375 C 59.882812 19.082031 60.421875 18.90625 61.035156 18.71875 C 62.257812 18.328125 63.183594 18.164062 63.867188 18.203125 C 64.375 18.242188 64.882812 18.125 64.648438 18.035156 C 64.375 17.929688 63.917969 17.917969 63.117188 17.988281 Z M 63.117188 17.988281 "/>
<path style=" stroke:none;fill-rule:nonzero;fill:rgb(0%,0%,0%);fill-opacity:1;" d="M 57.316406 20.332031 C 56.867188 20.683594 56.730469 20.898438 56.972656 20.898438 C 57.140625 20.898438 57.910156 20.242188 57.910156 20.105469 C 57.910156 19.949219 57.734375 20.019531 57.316406 20.332031 Z M 57.316406 20.332031 "/>
<path style=" stroke:none;fill-rule:nonzero;fill:rgb(0%,0%,0%);fill-opacity:1;" d="M 59.972656 44.109375 C 60.097656 44.277344 60.460938 44.707031 60.773438 45.078125 C 61.105469 45.46875 61.523438 46.140625 61.808594 46.726562 C 62.0625 47.265625 62.375 47.898438 62.492188 48.144531 L 62.707031 48.582031 L 62.65625 47.957031 C 62.570312 46.707031 61.203125 44.570312 60.128906 44.03125 L 59.738281 43.828125 Z M 59.972656 44.109375 "/>
<path style=" stroke:none;fill-rule:nonzero;fill:rgb(0%,0%,0%);fill-opacity:1;" d="M 59.179688 44.851562 C 59.179688 44.871094 59.375 45.300781 59.609375 45.808594 C 60.148438 46.972656 60.507812 48.105469 60.695312 49.238281 C 60.773438 49.726562 60.851562 50.144531 60.878906 50.164062 C 60.898438 50.195312 60.949219 49.921875 60.988281 49.570312 C 61.066406 48.828125 60.917969 47.832031 60.617188 47.117188 C 60.285156 46.335938 59.179688 44.589844 59.179688 44.851562 Z M 59.179688 44.851562 "/>
<path style=" stroke:none;fill-rule:nonzero;fill:rgb(0%,0%,0%);fill-opacity:1;" d="M 42.921875 74.902344 C 42.882812 74.960938 43.117188 75 43.554688 75 C 43.996094 75 44.230469 74.960938 44.191406 74.902344 C 44.160156 74.84375 43.867188 74.804688 43.554688 74.804688 C 43.242188 74.804688 42.949219 74.84375 42.921875 74.902344 Z M 42.921875 74.902344 "/>
<path style=" stroke:none;fill-rule:nonzero;fill:rgb(0%,0%,0%);fill-opacity:1;" d="M 45.117188 74.902344 C 45.117188 74.960938 46.074219 75 47.832031 74.988281 C 49.523438 74.980469 50.371094 74.949219 50.097656 74.890625 C 49.445312 74.773438 45.117188 74.785156 45.117188 74.902344 Z M 45.117188 74.902344 "/>
<path style=" stroke:none;fill-rule:nonzero;fill:rgb(0%,0%,0%);fill-opacity:1;" d="M 62.773438 74.882812 C 62.441406 74.949219 62.597656 75.097656 62.988281 75.097656 C 63.203125 75.097656 63.378906 75.058594 63.378906 75.007812 C 63.378906 74.910156 63.007812 74.832031 62.773438 74.882812 Z M 62.773438 74.882812 "/>
<path style=" stroke:none;fill-rule:nonzero;fill:rgb(0%,0%,0%);fill-opacity:1;" d="M 63.769531 75 C 63.769531 75.046875 63.945312 75.097656 64.152344 75.097656 C 64.367188 75.097656 64.570312 75.046875 64.601562 75 C 64.640625 74.941406 64.484375 74.902344 64.21875 74.902344 C 63.976562 74.902344 63.769531 74.941406 63.769531 75 Z M 63.769531 75 "/>
<path style=" stroke:none;fill-rule:nonzero;fill:rgb(0%,0%,0%);fill-opacity:1;" d="M 49.316406 86.082031 C 49.171875 86.257812 49.335938 86.523438 49.609375 86.523438 C 49.882812 86.523438 50.050781 86.257812 49.902344 86.082031 C 49.835938 86.003906 49.707031 85.9375 49.609375 85.9375 C 49.511719 85.9375 49.386719 86.003906 49.316406 86.082031 Z M 49.316406 86.082031 "/>
<path style=" stroke:none;fill-rule:nonzero;fill:rgb(0%,0%,0%);fill-opacity:1;" d="M 48.097656 86.132812 C 48.007812 86.277344 48.136719 86.425781 48.351562 86.425781 C 48.566406 86.425781 48.585938 86.316406 48.417969 86.152344 C 48.273438 86.003906 48.175781 86.003906 48.097656 86.132812 Z M 48.097656 86.132812 "/>
<path style=" stroke:none;fill-rule:nonzero;fill:rgb(0%,0%,0%);fill-opacity:1;" d="M 45.363281 86.230469 C 45.226562 86.289062 45.382812 86.316406 45.871094 86.316406 C 46.25 86.328125 46.601562 86.277344 46.632812 86.230469 C 46.710938 86.113281 45.644531 86.113281 45.363281 86.230469 Z M 45.363281 86.230469 "/>
<path style=" stroke:none;fill-rule:nonzero;fill:rgb(0%,0%,0%);fill-opacity:1;" d="M 52.734375 86.21875 C 52.734375 86.375 53.292969 86.445312 53.703125 86.328125 C 53.925781 86.269531 54.101562 86.199219 54.101562 86.179688 C 54.101562 86.152344 53.800781 86.132812 53.417969 86.132812 C 53.046875 86.132812 52.734375 86.171875 52.734375 86.21875 Z M 52.734375 86.21875 "/>
<path style=" stroke:none;fill-rule:nonzero;fill:rgb(0%,0%,0%);fill-opacity:1;" d="M 21.730469 74.890625 C 21.40625 75.019531 22.167969 75.097656 23.761719 75.097656 C 25.109375 75.097656 25.578125 75 24.894531 74.863281 C 24.464844 74.785156 21.964844 74.804688 21.730469 74.890625 Z M 21.730469 74.890625 "/>
<path style=" stroke:none;fill-rule:nonzero;fill:rgb(0%,0%,0%);fill-opacity:1;" d="M 74.953125 74.890625 C 74.816406 74.949219 74.902344 74.980469 75.292969 75.027344 C 76.515625 75.175781 78.117188 75.058594 77.421875 74.871094 C 77.109375 74.785156 75.1875 74.804688 74.953125 74.890625 Z M 74.953125 74.890625 "/>
<path style=" stroke:none;fill-rule:nonzero;fill:rgb(0%,0%,0%);fill-opacity:1;" d="M 28.710938 78.710938 C 28.203125 78.738281 27.949219 78.789062 28.058594 78.828125 C 28.292969 78.925781 29.765625 78.90625 30.078125 78.808594 C 30.5 78.671875 29.960938 78.632812 28.710938 78.710938 Z M 28.710938 78.710938 "/>
<path style=" stroke:none;fill-rule:nonzero;fill:rgb(0%,0%,0%);fill-opacity:1;" d="M 44.289062 82.410156 C 43.554688 82.507812 43.242188 82.605469 43.3125 82.722656 C 43.378906 82.820312 46.320312 82.839844 46.90625 82.753906 C 47.277344 82.683594 47.375 82.578125 47.140625 82.488281 C 46.886719 82.390625 44.875 82.34375 44.289062 82.410156 Z M 44.289062 82.410156 "/>
</g>
</svg>
